<?xml version="1.0" encoding="UTF-8"?>
<svg xmlns="http://www.w3.org/2000/svg" xmlns:xlink="http://www.w3.org/1999/xlink" width="32px" height="32px" viewBox="0 0 32 32" version="1.1">
<defs>
<linearGradient id="linear0" gradientUnits="userSpaceOnUse" x1="0" y1="0" x2="512" y2="0" gradientTransform="matrix(0.003271,0.0624143,-0.0624143,0.003271,0,0)">
<stop offset="0" style="stop-color:rgb(100%,30.980392%,7.843137%);stop-opacity:1;"/>
<stop offset="1" style="stop-color:rgb(60%,12.156863%,0%);stop-opacity:1;"/>
</linearGradient>
<clipPath id="clip1">
  <path d="M 5 3.8125 L 27 3.8125 L 27 28 L 5 28 Z M 5 3.8125 "/>
</clipPath>
<clipPath id="clip2">
  <path d="M 10 18 L 21 18 L 21 28.1875 L 10 28.1875 Z M 10 18 "/>
</clipPath>
</defs>
<g id="surface1">
<path style=" stroke:none;fill-rule:nonzero;fill:url(#linear0);" d="M 2.1875 0 L 29.8125 0 C 31.019531 0 32 0.980469 32 2.1875 L 32 29.8125 C 32 31.019531 31.019531 32 29.8125 32 L 2.1875 32 C 0.980469 32 0 31.019531 0 29.8125 L 0 2.1875 C 0 0.980469 0.980469 0 2.1875 0 Z M 2.1875 0 "/>
<g clip-path="url(#clip1)" clip-rule="nonzero">
<path style=" stroke:none;fill-rule:nonzero;fill:rgb(100%,100%,100%);fill-opacity:1;" d="M 11.277344 27.882812 C 11.277344 27.882812 5.335938 27.273438 5.335938 19.199219 C 5.335938 12.953125 10.058594 9.296875 10.058594 9.296875 C 10.058594 9.296875 12.039062 11.429688 13.5625 12.191406 C 15.085938 13.105469 15.695312 3.8125 15.695312 3.8125 C 15.695312 3.8125 26.664062 9.753906 26.664062 18.742188 C 26.664062 28.035156 20.570312 27.730469 20.570312 27.730469 C 20.570312 27.730469 23.3125 24.074219 23.3125 19.808594 C 23.3125 15.238281 17.371094 9.601562 17.371094 9.601562 C 17.371094 9.601562 16.609375 16.304688 14.171875 17.21875 C 11.734375 15.847656 10.363281 13.714844 10.363281 13.714844 C 10.363281 13.714844 4.726562 22.550781 11.277344 27.882812 Z M 11.277344 27.882812 "/>
</g>
<g clip-path="url(#clip2)" clip-rule="nonzero">
<path style=" stroke:none;fill-rule:nonzero;fill:rgb(100%,100%,100%);fill-opacity:1;" d="M 16.304688 28.339844 C 13.257812 28.1875 10.667969 26.207031 10.667969 23.464844 C 10.667969 20.722656 11.734375 19.503906 11.734375 19.503906 C 11.734375 19.503906 12.496094 21.027344 13.410156 21.789062 C 14.324219 22.550781 16.152344 23.007812 17.066406 21.941406 C 17.980469 21.027344 18.285156 18.4375 18.285156 18.4375 C 18.285156 18.4375 20.417969 20.113281 20.113281 23.007812 C 19.960938 26.054688 18.742188 28.339844 16.304688 28.339844 Z M 16.304688 28.339844 "/>
</g>
</g>
</svg>
