<?xml version="1.0" encoding="UTF-8"?>
<svg xmlns="http://www.w3.org/2000/svg" xmlns:xlink="http://www.w3.org/1999/xlink" width="32px" height="32px" viewBox="0 0 32 32" version="1.1">
<defs>
<linearGradient id="linear0" gradientUnits="userSpaceOnUse" x1="0" y1="0" x2="512" y2="0" gradientTransform="matrix(0.0587308,0.0213763,-0.0213763,0.0587308,0,0)">
<stop offset="0" style="stop-color:rgb(100%,38.039216%,67.843137%);stop-opacity:1;"/>
<stop offset="1" style="stop-color:rgb(33.72549%,26.666667%,73.333333%);stop-opacity:1;"/>
</linearGradient>
</defs>
<g id="surface1">
<path style=" stroke:none;fill-rule:nonzero;fill:url(#linear0);" d="M 16 0 C 24.835938 0 32 7.164062 32 16 C 32 24.835938 24.835938 32 16 32 C 7.164062 32 0 24.835938 0 16 C 0 7.164062 7.164062 0 16 0 Z M 16 0 "/>
<path style="fill-rule:nonzero;fill:rgb(100%,100%,100%);fill-opacity:1;stroke-width:4;stroke-linecap:round;stroke-linejoin:round;stroke:rgb(100%,100%,100%);stroke-opacity:1;stroke-miterlimit:4;" d="M 9.859504 38.140496 C 17.669421 45.950413 30.330579 45.950413 38.140496 38.140496 L 9.859504 9.859504 C 2.049587 17.669421 2.049587 30.330579 9.859504 38.140496 Z M 33.900826 33.900826 L 39.173554 11.917355 M 24 24 L 37.173554 10.826446 M 14.099174 14.099174 L 36.082645 8.826446 M 44 8 C 44 10.206612 42.206612 12 40 12 C 37.793388 12 36 10.206612 36 8 C 36 5.793388 37.793388 4 40 4 C 42.206612 4 44 5.793388 44 8 Z M 44 8 " transform="matrix(0.472656,0,0,0.472656,4.65625,4.65625)"/>
</g>
</svg>
