<svg xmlns="http://www.w3.org/2000/svg" xmlns:xlink="http://www.w3.org/1999/xlink" width="32px" height="32px" viewBox="0 0 32 32" version="1.1">
<g id="surface1">
<path style=" stroke:none;fill-rule:nonzero;fill:#6493ff;fill-opacity:1;" d="M 16 28 C 14.332031 28 12.773438 27.683594 11.316406 27.050781 C 9.859375 26.414062 8.59375 25.558594 7.515625 24.484375 C 6.4375 23.40625 5.582031 22.140625 4.949219 20.683594 C 4.316406 19.230469 4 17.667969 4 16 C 4 14.332031 4.316406 12.773438 4.949219 11.316406 C 5.585938 9.859375 6.441406 8.59375 7.515625 7.515625 C 8.59375 6.4375 9.859375 5.582031 11.316406 4.949219 C 12.769531 4.316406 14.332031 4 16 4 C 17.667969 4 19.226562 4.316406 20.683594 4.949219 C 22.140625 5.585938 23.40625 6.441406 24.484375 7.515625 C 25.5625 8.59375 26.417969 9.859375 27.050781 11.316406 C 27.683594 12.769531 28 14.332031 28 16 C 28 17.667969 27.683594 19.226562 27.050781 20.683594 C 26.414062 22.140625 25.558594 23.40625 24.484375 24.484375 C 23.40625 25.5625 22.140625 26.417969 20.683594 27.050781 C 19.230469 27.683594 17.667969 28 16 28 Z M 18.265625 25.066406 C 19.933594 24.644531 21.378906 23.820312 22.601562 22.601562 C 23.820312 21.378906 24.644531 19.933594 25.066406 18.265625 Z M 16.035156 24.464844 L 25.300781 15.199219 L 25.167969 14.25 C 25.121094 13.929688 25.042969 13.613281 24.933594 13.300781 L 14.800781 23.433594 C 14.976562 23.632812 15.171875 23.816406 15.382812 23.984375 C 15.59375 24.152344 15.8125 24.3125 16.035156 24.464844 Z M 13.566406 21.832031 L 24.066406 11.332031 C 23.933594 11.109375 23.800781 10.894531 23.667969 10.683594 C 23.535156 10.472656 23.378906 10.265625 23.199219 10.066406 L 12.832031 20.398438 C 12.945312 20.644531 13.0625 20.882812 13.183594 21.117188 C 13.308594 21.347656 13.433594 21.589844 13.566406 21.832031 Z M 12.234375 18.234375 L 21.765625 8.667969 C 21.542969 8.488281 21.328125 8.328125 21.117188 8.183594 C 20.90625 8.039062 20.675781 7.898438 20.433594 7.765625 L 12 16.199219 C 12.023438 16.554688 12.050781 16.898438 12.085938 17.234375 C 12.117188 17.566406 12.167969 17.898438 12.234375 18.234375 Z M 12.234375 13.167969 L 18.398438 6.964844 C 18.066406 6.878906 17.734375 6.8125 17.398438 6.765625 C 17.066406 6.722656 16.734375 6.6875 16.398438 6.667969 C 15.3125 7.3125 14.410156 8.1875 13.699219 9.300781 C 12.988281 10.410156 12.5 11.699219 12.234375 13.167969 Z M 12.234375 13.167969 "/>
</g>
</svg>