<?xml version="1.0" encoding="UTF-8"?>
<svg xmlns="http://www.w3.org/2000/svg" xmlns:xlink="http://www.w3.org/1999/xlink" width="32px" height="32px" viewBox="0 0 32 32" version="1.1">
<defs>
<linearGradient id="linear0" gradientUnits="userSpaceOnUse" x1="0" y1="0" x2="512" y2="0" gradientTransform="matrix(0.00761683,0.0620341,-0.0620341,0.00761683,0,0)">
<stop offset="0" style="stop-color:rgb(43.921569%,75.686275%,100%);stop-opacity:1;"/>
<stop offset="1" style="stop-color:rgb(0%,36.078431%,63.921569%);stop-opacity:1;"/>
</linearGradient>
<clipPath id="clip1">
  <path d="M 4 3.28125 L 28 3.28125 L 28 28.71875 L 4 28.71875 Z M 4 3.28125 "/>
</clipPath>
</defs>
<g id="surface1">
<path style=" stroke:none;fill-rule:nonzero;fill:url(#linear0);" d="M 2.1875 0 L 29.8125 0 C 31.019531 0 32 0.980469 32 2.1875 L 32 29.8125 C 32 31.019531 31.019531 32 29.8125 32 L 2.1875 32 C 0.980469 32 0 31.019531 0 29.8125 L 0 2.1875 C 0 0.980469 0.980469 0 2.1875 0 Z M 2.1875 0 "/>
<g clip-path="url(#clip1)" clip-rule="nonzero">
<path style=" stroke:none;fill-rule:nonzero;fill:rgb(100%,100%,100%);fill-opacity:1;" d="M 27.042969 14.78125 C 26.941406 14.980469 26.800781 15.113281 26.621094 15.179688 C 26.4375 15.246094 26.261719 15.222656 26.097656 15.105469 L 23.589844 13.417969 L 22.347656 14.136719 L 22.347656 17.863281 L 23.589844 18.582031 L 26.097656 16.894531 C 26.261719 16.777344 26.4375 16.753906 26.621094 16.820312 C 26.800781 16.886719 26.941406 17.019531 27.042969 17.21875 C 27.140625 17.414062 27.167969 17.621094 27.117188 17.839844 C 27.066406 18.054688 26.960938 18.21875 26.792969 18.335938 L 25.105469 19.476562 L 26.347656 20.199219 C 26.726562 20.414062 26.972656 20.730469 27.078125 21.15625 C 27.1875 21.578125 27.132812 21.976562 26.917969 22.359375 C 26.703125 22.742188 26.382812 22.988281 25.960938 23.105469 C 25.539062 23.21875 25.136719 23.164062 24.757812 22.929688 L 23.960938 22.457031 L 23.960938 23.949219 C 23.960938 24.164062 23.882812 24.351562 23.726562 24.507812 C 23.566406 24.664062 23.378906 24.742188 23.15625 24.742188 C 22.929688 24.742188 22.746094 24.664062 22.59375 24.507812 C 22.445312 24.351562 22.371094 24.164062 22.371094 23.949219 L 22.371094 21.539062 L 20.632812 20.546875 L 17.578125 22.261719 L 17.578125 24.472656 L 19.589844 25.636719 C 19.773438 25.753906 19.890625 25.921875 19.949219 26.136719 C 20.007812 26.351562 19.984375 26.550781 19.875 26.730469 C 19.769531 26.914062 19.609375 27.035156 19.402344 27.089844 C 19.195312 27.148438 19 27.128906 18.820312 27.03125 L 17.578125 26.285156 L 17.578125 27.128906 C 17.578125 27.558594 17.425781 27.933594 17.117188 28.246094 C 16.8125 28.5625 16.4375 28.71875 16 28.71875 C 15.5625 28.71875 15.183594 28.5625 14.871094 28.246094 C 14.554688 27.933594 14.398438 27.558594 14.398438 27.128906 L 14.398438 26.285156 L 13.179688 27.03125 C 13 27.128906 12.804688 27.148438 12.597656 27.089844 C 12.390625 27.035156 12.230469 26.914062 12.125 26.730469 C 12.015625 26.550781 11.992188 26.351562 12.050781 26.136719 C 12.109375 25.921875 12.226562 25.753906 12.410156 25.636719 L 14.398438 24.472656 L 14.398438 22.261719 L 11.367188 20.546875 L 9.628906 21.539062 L 9.628906 23.949219 C 9.628906 24.164062 9.554688 24.351562 9.40625 24.507812 C 9.253906 24.664062 9.070312 24.742188 8.84375 24.742188 C 8.621094 24.742188 8.433594 24.664062 8.273438 24.507812 C 8.117188 24.351562 8.039062 24.164062 8.039062 23.949219 L 8.039062 22.457031 L 7.242188 22.929688 C 6.863281 23.164062 6.460938 23.21875 6.039062 23.105469 C 5.617188 22.988281 5.296875 22.742188 5.082031 22.359375 C 4.867188 21.976562 4.8125 21.578125 4.921875 21.15625 C 5.027344 20.730469 5.273438 20.414062 5.652344 20.199219 L 6.894531 19.476562 L 5.207031 18.335938 C 5.039062 18.21875 4.933594 18.054688 4.882812 17.839844 C 4.832031 17.621094 4.859375 17.414062 4.957031 17.21875 C 5.058594 17.019531 5.199219 16.886719 5.378906 16.820312 C 5.5625 16.753906 5.738281 16.777344 5.902344 16.894531 L 8.410156 18.582031 L 9.652344 17.863281 L 9.652344 14.136719 L 8.410156 13.417969 L 5.902344 15.105469 C 5.738281 15.222656 5.5625 15.246094 5.378906 15.179688 C 5.199219 15.113281 5.058594 14.980469 4.957031 14.78125 C 4.859375 14.585938 4.832031 14.378906 4.882812 14.160156 C 4.933594 13.945312 5.039062 13.78125 5.207031 13.664062 L 6.894531 12.523438 L 5.652344 11.800781 C 5.273438 11.585938 5.027344 11.269531 4.921875 10.84375 C 4.8125 10.421875 4.867188 10.023438 5.082031 9.640625 C 5.296875 9.257812 5.617188 9.011719 6.039062 8.894531 C 6.460938 8.78125 6.863281 8.835938 7.242188 9.070312 L 8.039062 9.542969 L 8.039062 8.050781 C 8.039062 7.835938 8.117188 7.648438 8.273438 7.492188 C 8.433594 7.335938 8.621094 7.257812 8.84375 7.257812 C 9.070312 7.257812 9.253906 7.335938 9.40625 7.492188 C 9.554688 7.648438 9.628906 7.835938 9.628906 8.050781 L 9.628906 10.460938 L 11.367188 11.453125 L 14.398438 9.738281 L 14.398438 7.527344 L 12.410156 6.363281 C 12.226562 6.246094 12.109375 6.078125 12.050781 5.863281 C 11.992188 5.648438 12.015625 5.449219 12.125 5.269531 C 12.230469 5.085938 12.390625 4.964844 12.597656 4.910156 C 12.804688 4.851562 13 4.871094 13.179688 4.96875 L 14.398438 5.714844 L 14.398438 4.871094 C 14.398438 4.441406 14.554688 4.066406 14.871094 3.753906 C 15.183594 3.4375 15.5625 3.28125 16 3.28125 C 16.4375 3.28125 16.8125 3.4375 17.117188 3.753906 C 17.425781 4.066406 17.578125 4.441406 17.578125 4.871094 L 17.578125 5.714844 L 18.820312 4.96875 C 19 4.871094 19.195312 4.851562 19.402344 4.910156 C 19.609375 4.964844 19.769531 5.089844 19.875 5.28125 C 19.984375 5.472656 20.007812 5.671875 19.949219 5.878906 C 19.890625 6.085938 19.773438 6.246094 19.589844 6.363281 L 17.578125 7.527344 L 17.578125 9.738281 L 20.632812 11.453125 L 22.371094 10.460938 L 22.371094 8.050781 C 22.371094 7.835938 22.445312 7.648438 22.59375 7.492188 C 22.746094 7.335938 22.929688 7.257812 23.15625 7.257812 C 23.378906 7.257812 23.566406 7.335938 23.726562 7.492188 C 23.882812 7.648438 23.960938 7.835938 23.960938 8.050781 L 23.960938 9.542969 L 24.757812 9.070312 C 25.136719 8.835938 25.539062 8.78125 25.960938 8.894531 C 26.382812 9.011719 26.703125 9.257812 26.917969 9.640625 C 27.132812 10.023438 27.1875 10.421875 27.078125 10.84375 C 26.972656 11.269531 26.726562 11.585938 26.347656 11.800781 L 25.105469 12.523438 L 26.792969 13.664062 C 26.960938 13.78125 27.066406 13.945312 27.117188 14.160156 C 27.167969 14.378906 27.140625 14.585938 27.042969 14.78125 Z M 19.167969 14.410156 L 15.988281 12.820312 L 12.832031 14.410156 L 12.832031 17.589844 L 15.988281 19.179688 L 19.167969 17.589844 Z M 19.167969 14.410156 "/>
</g>
</g>
</svg>
