<?xml version="1.0" encoding="UTF-8"?>
<svg xmlns="http://www.w3.org/2000/svg" xmlns:xlink="http://www.w3.org/1999/xlink" width="32px" height="32px" viewBox="0 0 32 32" version="1.1">
<defs>
<linearGradient id="linear0" gradientUnits="userSpaceOnUse" x1="0" y1="0" x2="512" y2="0" gradientTransform="matrix(0.0625,0,0,0.0625,0,0)">
<stop offset="0" style="stop-color:rgb(100%,45.098039%,0%);stop-opacity:1;"/>
<stop offset="1" style="stop-color:rgb(85.882353%,0%,52.941176%);stop-opacity:1;"/>
</linearGradient>
</defs>
<g id="surface1">
<path style=" stroke:none;fill-rule:nonzero;fill:url(#linear0);" d="M 16 0 C 24.835938 0 32 7.164062 32 16 C 32 24.835938 24.835938 32 16 32 C 7.164062 32 0 24.835938 0 16 C 0 7.164062 7.164062 0 16 0 Z M 16 0 "/>
<path style=" stroke:none;fill-rule:nonzero;fill:rgb(100%,100%,100%);fill-opacity:1;" d="M 9.253906 25.636719 C 8.726562 25.636719 8.269531 25.445312 7.894531 25.070312 C 7.515625 24.691406 7.328125 24.238281 7.328125 23.707031 L 7.328125 12.820312 C 7.054688 12.644531 6.824219 12.417969 6.640625 12.144531 C 6.457031 11.871094 6.363281 11.550781 6.363281 11.183594 L 6.363281 8.292969 C 6.363281 7.761719 6.554688 7.308594 6.929688 6.929688 C 7.308594 6.550781 7.761719 6.363281 8.292969 6.363281 L 23.707031 6.363281 C 24.238281 6.363281 24.691406 6.554688 25.070312 6.929688 C 25.449219 7.308594 25.636719 7.761719 25.636719 8.292969 L 25.636719 11.183594 C 25.636719 11.550781 25.542969 11.871094 25.359375 12.144531 C 25.171875 12.417969 24.945312 12.644531 24.671875 12.820312 L 24.671875 23.707031 C 24.671875 24.238281 24.484375 24.691406 24.105469 25.070312 C 23.726562 25.449219 23.273438 25.636719 22.746094 25.636719 Z M 23.707031 11.183594 L 23.707031 8.292969 L 8.292969 8.292969 L 8.292969 11.183594 Z M 14.074219 17.925781 L 17.925781 17.925781 C 18.199219 17.925781 18.429688 17.835938 18.613281 17.648438 C 18.800781 17.464844 18.890625 17.234375 18.890625 16.964844 C 18.890625 16.691406 18.796875 16.460938 18.613281 16.277344 C 18.429688 16.089844 18.199219 16 17.925781 16 L 14.074219 16 C 13.800781 16 13.570312 16.09375 13.386719 16.277344 C 13.199219 16.460938 13.109375 16.691406 13.109375 16.964844 C 13.109375 17.238281 13.203125 17.464844 13.386719 17.652344 C 13.570312 17.835938 13.800781 17.925781 14.074219 17.925781 Z M 14.074219 17.925781 "/>
</g>
</svg>
