<?xml version="1.0" encoding="UTF-8"?>
<svg xmlns="http://www.w3.org/2000/svg" xmlns:xlink="http://www.w3.org/1999/xlink" width="32px" height="32px" viewBox="0 0 32 32" version="1.1">
<defs>
<linearGradient id="linear0" gradientUnits="userSpaceOnUse" x1="0" y1="0" x2="512" y2="0" gradientTransform="matrix(0.0273982,0.0561746,-0.0561746,0.0273982,0,0)">
<stop offset="0" style="stop-color:rgb(41.960784%,0%,0%);stop-opacity:1;"/>
<stop offset="1" style="stop-color:rgb(65.882353%,0%,0%);stop-opacity:1;"/>
</linearGradient>
</defs>
<g id="surface1">
<path style=" stroke:none;fill-rule:nonzero;fill:url(#linear0);" d="M 2.25 0 L 29.75 0 C 30.992188 0 32 1.007812 32 2.25 L 32 29.75 C 32 30.992188 30.992188 32 29.75 32 L 2.25 32 C 1.007812 32 0 30.992188 0 29.75 L 0 2.25 C 0 1.007812 1.007812 0 2.25 0 Z M 2.25 0 "/>
<path style=" stroke:none;fill-rule:nonzero;fill:rgb(100%,100%,100%);fill-opacity:1;" d="M 11.199219 7.675781 C 11.09375 6.871094 9.632812 5.984375 8.917969 5.984375 C 8.777344 5.984375 8.664062 6.019531 8.597656 6.09375 C 7.386719 7.449219 9.386719 10.609375 9.386719 10.609375 C 9.386719 10.609375 11.371094 9.011719 11.199219 7.675781 Z M 18.355469 11.035156 C 18.355469 11.035156 20.261719 8.027344 19.105469 6.742188 C 19.042969 6.667969 18.9375 6.636719 18.800781 6.636719 C 18.117188 6.636719 16.726562 7.480469 16.628906 8.246094 C 16.464844 9.511719 18.355469 11.035156 18.355469 11.035156 Z M 15.371094 8.242188 C 15.273438 7.472656 13.878906 6.628906 13.195312 6.628906 C 13.0625 6.628906 12.957031 6.664062 12.890625 6.734375 C 11.738281 8.023438 13.644531 11.03125 13.644531 11.03125 C 13.644531 11.03125 15.535156 9.511719 15.371094 8.242188 Z M 5.011719 5.050781 C 4.980469 5.050781 4.949219 5.054688 4.917969 5.058594 C 0.0429688 5.554688 5.550781 20.945312 7.167969 21.96875 C 7.167969 21.96875 6.226562 13.546875 7.324219 8.402344 C 7.726562 6.507812 5.992188 5.050781 5.007812 5.050781 Z M 27.082031 5.058594 C 27.050781 5.054688 27.019531 5.050781 26.988281 5.050781 C 26.007812 5.050781 24.269531 6.507812 24.675781 8.402344 C 25.773438 13.546875 24.828125 21.96875 24.828125 21.96875 C 26.453125 20.945312 31.957031 5.554688 27.082031 5.058594 Z M 23.082031 5.984375 C 22.363281 5.984375 20.902344 6.871094 20.800781 7.675781 C 20.628906 9.007812 22.613281 10.609375 22.613281 10.609375 C 22.613281 10.609375 24.613281 7.449219 23.402344 6.097656 C 23.335938 6.019531 23.222656 5.984375 23.082031 5.984375 Z M 14.84375 25.367188 C 14.730469 24.738281 13.421875 23.40625 13.421875 23.40625 C 13.421875 23.40625 12.28125 24.738281 12.292969 25.277344 C 12.292969 25.398438 12.230469 26.5625 12.40625 26.722656 C 12.566406 26.871094 13.121094 26.945312 13.664062 26.945312 C 14.191406 26.945312 14.707031 26.875 14.84375 26.722656 C 14.972656 26.585938 14.863281 25.460938 14.84375 25.367188 Z M 11.511719 24.015625 C 10.839844 22.867188 10.445312 21.183594 10.226562 19.921875 C 10.054688 18.921875 9.996094 18.1875 9.996094 18.1875 C 9.15625 18.84375 7.535156 25.835938 10.136719 25.835938 C 10.226562 25.835938 10.320312 25.828125 10.410156 25.8125 C 10.667969 25.769531 10.992188 25.574219 11.246094 25.300781 C 11.574219 24.941406 11.769531 24.457031 11.511719 24.015625 Z M 22 18.1875 C 22 18.1875 21.945312 18.855469 21.789062 19.785156 C 21.578125 21.058594 21.179688 22.824219 20.484375 24.015625 C 20.277344 24.375 20.367188 24.761719 20.582031 25.085938 C 20.839844 25.464844 21.265625 25.757812 21.582031 25.8125 C 21.675781 25.828125 21.765625 25.835938 21.859375 25.835938 C 24.464844 25.832031 22.839844 18.84375 22 18.183594 Z M 19.699219 25.28125 C 19.710938 24.738281 18.570312 23.40625 18.570312 23.40625 C 18.570312 23.40625 17.265625 24.738281 17.152344 25.367188 C 17.140625 25.449219 17.011719 26.566406 17.152344 26.722656 C 17.296875 26.878906 17.808594 26.949219 18.335938 26.949219 C 18.878906 26.949219 19.433594 26.871094 19.589844 26.722656 C 19.835938 26.496094 19.699219 25.320312 19.703125 25.277344 Z M 11.71875 25.585938 L 11.730469 25.59375 L 11.730469 25.566406 Z M 11.71875 25.585938 "/>
</g>
</svg>
