<?xml version="1.0" encoding="UTF-8"?>
<svg xmlns="http://www.w3.org/2000/svg" xmlns:xlink="http://www.w3.org/1999/xlink" width="32px" height="32px" viewBox="0 0 32 32" version="1.1">
<defs>
<linearGradient id="linear0" gradientUnits="userSpaceOnUse" x1="0" y1="0" x2="512" y2="0" gradientTransform="matrix(-0.00109078,0.0624905,-0.0624905,-0.00109078,0,0)">
<stop offset="0" style="stop-color:rgb(56.862745%,73.333333%,40.784314%);stop-opacity:1;"/>
<stop offset="1" style="stop-color:rgb(0.392157%,25.882353%,0%);stop-opacity:1;"/>
</linearGradient>
</defs>
<g id="surface1">
<path style=" stroke:none;fill-rule:nonzero;fill:url(#linear0);" d="M 2.1875 0 L 29.8125 0 C 31.019531 0 32 0.980469 32 2.1875 L 32 29.8125 C 32 31.019531 31.019531 32 29.8125 32 L 2.1875 32 C 0.980469 32 0 31.019531 0 29.8125 L 0 2.1875 C 0 0.980469 0.980469 0 2.1875 0 Z M 2.1875 0 "/>
<path style=" stroke:none;fill-rule:evenodd;fill:rgb(100%,100%,100%);fill-opacity:1;" d="M 12.625 4.75 C 12.3125 4.75 12.0625 5 12.0625 5.3125 L 12.0625 7.5625 C 12.0625 7.875 12.3125 8.125 12.625 8.125 L 13.75 8.125 L 13.75 10.375 C 11.574219 10.375 9.8125 12.136719 9.8125 14.3125 L 9.8125 25.5625 C 9.8125 26.496094 10.566406 27.25 11.5 27.25 L 20.5 27.25 C 21.433594 27.25 22.1875 26.496094 22.1875 25.5625 L 22.1875 14.3125 C 22.1875 12.136719 20.425781 10.375 18.25 10.375 L 18.25 8.125 L 19.375 8.125 C 19.6875 8.125 19.9375 7.875 19.9375 7.5625 L 19.9375 5.3125 C 19.9375 5 19.6875 4.75 19.375 4.75 Z M 14.875 10.9375 L 14.875 8.125 L 17.125 8.125 L 17.125 10.9375 C 17.125 11.25 17.375 11.5 17.6875 11.5 L 18.25 11.5 C 19.585938 11.5 20.738281 12.441406 21.007812 13.75 L 10.992188 13.75 C 11.261719 12.441406 12.414062 11.5 13.75 11.5 L 14.3125 11.5 C 14.625 11.5 14.875 11.25 14.875 10.9375 Z M 18.386719 19.675781 L 17.988281 19.277344 L 16.796875 20.472656 L 17.988281 21.664062 L 18.386719 21.269531 L 19.183594 22.0625 L 17.589844 23.65625 L 16.796875 22.859375 L 17.191406 22.460938 L 16 21.269531 L 14.808594 22.460938 L 15.203125 22.859375 L 14.410156 23.652344 L 14.011719 23.257812 L 12.816406 22.0625 L 13.613281 21.265625 L 14.011719 21.664062 L 15.203125 20.472656 L 14.011719 19.277344 L 13.613281 19.675781 L 12.816406 18.882812 L 14.410156 17.289062 L 15.203125 18.085938 L 14.808594 18.484375 L 16 19.675781 L 17.195312 18.484375 L 16.796875 18.085938 L 17.589844 17.289062 L 19.183594 18.878906 Z M 18.386719 19.675781 "/>
</g>
</svg>
