<?xml version="1.0" encoding="UTF-8"?>
<svg xmlns="http://www.w3.org/2000/svg" xmlns:xlink="http://www.w3.org/1999/xlink" width="32px" height="32px" viewBox="0 0 32 32" version="1.1">
<g id="surface1">
<path style=" stroke:none;fill-rule:nonzero;fill:rgb(5.490196%,64.705884%,91.37255%);fill-opacity:1;" d="M 16 0 C 24.835938 0 32 7.164062 32 16 C 32 24.835938 24.835938 32 16 32 C 7.164062 32 0 24.835938 0 16 C 0 7.164062 7.164062 0 16 0 Z M 16 0 "/>
<path style="fill-rule:nonzero;fill:rgb(100%,100%,100%);fill-opacity:1;stroke-width:1.5;stroke-linecap:round;stroke-linejoin:round;stroke:rgb(100%,100%,100%);stroke-opacity:1;stroke-miterlimit:4;" d="M 12.748307 3.572235 C 12.805869 3.06772 12.216704 2.793454 11.911964 3.182844 L 4.110609 13.198646 C 3.853273 13.527088 4.073363 14.028217 4.472912 14.028217 L 11.461625 14.028217 C 11.74605 14.028217 11.969526 14.295711 11.93228 14.600451 L 11.251693 20.427765 C 11.190745 20.93228 11.783296 21.206546 12.08465 20.817156 L 19.889391 10.801354 C 20.146727 10.472912 19.926637 9.971783 19.523702 9.971783 L 12.534989 9.971783 C 12.250564 9.971783 12.030474 9.704289 12.064334 9.399549 L 12.744921 3.572235 Z M 12.748307 3.572235 " transform="matrix(1.153646,0,0,1.153646,2.15625,2.15625)"/>
</g>
</svg>
