<svg xmlns="http://www.w3.org/2000/svg" xmlns:xlink="http://www.w3.org/1999/xlink" viewBox="0,0,256,256" width="32px" height="32px" fill-rule="nonzero"><g fill="#ffffff" fill-rule="nonzero" stroke="none" stroke-width="1" stroke-linecap="butt" stroke-linejoin="miter" stroke-miterlimit="10" stroke-dasharray="" stroke-dashoffset="0" font-family="none" font-weight="none" font-size="none" text-anchor="none" style="mix-blend-mode: normal"><g transform="scale(10.66667,10.66667)"><path d="M11.5,0c-1.381,0 -2.5,1.119 -2.5,2.5v1.5h-4c-1.105,0 -2,0.895 -2,2v3c0,0.552 0.448,1 1,1h0.35742c1.308,0 2.49791,0.94119 2.62891,2.24219c0.15,1.497 -1.02033,2.75781 -2.48633,2.75781h-0.5c-0.552,0 -1,0.448 -1,1v3c0,1.105 0.895,2 2,2h3c0.552,0 1,-0.448 1,-1v-0.35742c0,-1.308 0.94119,-2.49791 2.24219,-2.62891c1.497,-0.15 2.75781,1.02033 2.75781,2.48633v0.5c0,0.552 0.448,1 1,1h3c1.105,0 2,-0.895 2,-2v-4h1.5c1.381,0 2.5,-1.119 2.5,-2.5c0,-1.381 -1.119,-2.5 -2.5,-2.5h-1.5v-4c0,-1.105 -0.895,-2 -2,-2h-4v-1.5c0,-1.381 -1.119,-2.5 -2.5,-2.5z"></path></g></g></svg>