<?xml version="1.0" encoding="UTF-8"?>
<svg xmlns="http://www.w3.org/2000/svg" xmlns:xlink="http://www.w3.org/1999/xlink" width="32px" height="32px" viewBox="0 0 24 24" version="1.1">
<g id="surface1">
<path style="fill-rule:nonzero;fill:rgb(100%,100%,100%);fill-opacity:1;stroke-width:1;stroke-linecap:butt;stroke-linejoin:miter;stroke:rgb(100%,100%,100%);stroke-opacity:1;stroke-miterlimit:4;" d="M 256.000011 96.000005 C 289.100013 96.000005 316.700014 70.200004 320.000014 38.000003 C 320.300014 35.000003 317.000014 32.000003 314.000014 32.000003 C 312.400014 32.000003 310.800014 32.300003 309.300014 32.900003 C 309.100014 33.000003 288.200013 41.000003 256.000011 41.000003 C 223.80001 41.000003 202.900009 33.000003 202.700009 32.900003 C 201.000009 32.300003 199.200009 32.000003 197.400009 32.000003 C 195.900009 32.100003 194.500009 32.800003 193.400009 33.900003 C 192.400009 35.000003 191.900009 36.500003 192.000009 38.000003 C 195.300009 70.200004 223.00001 96.000005 256.000011 96.000005 Z M 256.000011 96.000005 " transform="matrix(0.0390625,0,0,0.0390625,2,2)"/>
<path style="fill-rule:nonzero;fill:rgb(100%,100%,100%);fill-opacity:1;stroke-width:1;stroke-linecap:butt;stroke-linejoin:miter;stroke:rgb(100%,100%,100%);stroke-opacity:1;stroke-miterlimit:4;" d="M 485.300021 89.900005 L 356.000015 44.600003 C 354.900015 44.200003 353.600015 44.400003 352.600015 45.000003 C 351.600015 45.600003 350.900015 46.600003 350.700015 47.800003 C 343.000015 94.100005 303.000013 128.000006 256.000011 128.000006 C 209.10001 128.000006 169.100008 94.100005 161.300008 47.800003 C 161.200008 46.600003 160.500008 45.600003 159.400008 44.900003 C 158.400008 44.300003 157.100008 44.200003 156.000007 44.600003 L 26.700002 89.900005 C 19.200002 92.500005 14.800002 100.200005 16.300002 108.000006 L 32.900003 196.000009 C 34.200003 202.900009 39.900003 208.10001 46.800003 208.90001 L 95.700005 214.40001 C 99.800005 214.90001 102.900005 218.40001 102.800005 222.60001 L 95.500005 463.50002 C 95.300005 469.90002 98.900005 475.70002 104.600005 478.40002 C 106.900006 479.50002 109.400006 480.00002 112.000006 480.00002 L 400.000017 480.00002 C 402.600017 480.00002 405.100017 479.50002 407.400017 478.40002 C 413.100018 475.70002 416.700018 469.90002 416.500018 463.50002 L 409.200018 222.60001 C 409.100018 218.40001 412.200018 214.90001 416.300018 214.40001 L 465.20002 208.90001 C 472.10002 208.10001 477.80002 202.900009 479.10002 196.000009 L 495.700021 108.000006 C 497.200021 100.200005 492.800021 92.500005 485.300021 89.900005 Z M 485.300021 89.900005 " transform="matrix(0.0390625,0,0,0.0390625,2,2)"/>
</g>
</svg>
