<?xml version="1.0" encoding="UTF-8"?>
<svg xmlns="http://www.w3.org/2000/svg" xmlns:xlink="http://www.w3.org/1999/xlink" width="128px" height="128px" viewBox="0 0 128 128" version="1.1">
<defs>
<linearGradient id="linear0" gradientUnits="userSpaceOnUse" x1="0" y1="0" x2="512" y2="0" gradientTransform="matrix(0.164015,0.188677,-0.188677,0.164015,0,0)">
<stop offset="0" style="stop-color:rgb(45.098039%,0%,100%);stop-opacity:1;"/>
<stop offset="1" style="stop-color:rgb(76.078431%,0%,73.333333%);stop-opacity:1;"/>
</linearGradient>
</defs>
<g id="surface1">
<path style=" stroke:none;fill-rule:nonzero;fill:url(#linear0);" d="M 20 0 L 108 0 C 119.046875 0 128 8.953125 128 20 L 128 108 C 128 119.046875 119.046875 128 108 128 L 20 128 C 8.953125 128 0 119.046875 0 108 L 0 20 C 0 8.953125 8.953125 0 20 0 Z M 20 0 "/>
<path style=" stroke:none;fill-rule:nonzero;fill:rgb(100%,100%,100%);fill-opacity:1;" d="M 42.75 64 L 85.25 64 C 91.117188 64 95.875 59.242188 95.875 53.375 C 95.875 47.507812 91.117188 42.75 85.25 42.75 C 82.984375 42.75 81.09375 41.117188 80.164062 39.050781 C 77.3125 32.675781 70.980469 28.574219 64 28.574219 C 57.019531 28.574219 50.6875 32.675781 47.835938 39.050781 C 46.90625 41.117188 45.015625 42.75 42.75 42.75 C 36.882812 42.75 32.125 47.507812 32.125 53.375 C 32.125 59.242188 36.882812 64 42.75 64 "/>
<path style=" stroke:none;fill-rule:evenodd;fill:rgb(100%,100%,100%);fill-opacity:1;" d="M 57.75 71.082031 L 56.113281 73.867188 C 53.324219 78.605469 51.933594 80.976562 52.949219 82.757812 C 53.96875 84.542969 56.722656 84.542969 62.230469 84.542969 C 63.066406 84.542969 63.484375 84.542969 63.742188 84.800781 C 64 85.058594 64 85.476562 64 86.3125 L 64 92.914062 C 64 95.535156 64 96.84375 64.652344 97.023438 C 65.308594 97.199219 65.96875 96.066406 67.296875 93.808594 L 71.886719 86.007812 C 74.675781 81.269531 76.066406 78.898438 75.050781 77.117188 C 74.03125 75.332031 71.277344 75.332031 65.769531 75.332031 C 64.933594 75.332031 64.515625 75.332031 64.257812 75.074219 C 64 74.816406 64 74.398438 64 73.5625 L 64 71.082031 Z M 57.75 71.082031 "/>
</g>
</svg>
