<?xml version="1.0" encoding="UTF-8"?>
<svg xmlns="http://www.w3.org/2000/svg" xmlns:xlink="http://www.w3.org/1999/xlink" width="32px" height="32px" viewBox="0 0 32 32" version="1.1">
<defs>
<linearGradient id="linear0" gradientUnits="userSpaceOnUse" x1="0" y1="0" x2="512" y2="0" gradientTransform="matrix(0.0606435,0.0151201,-0.0151201,0.0606435,0,0)">
<stop offset="0" style="stop-color:rgb(58.823529%,23.137255%,94.509804%);stop-opacity:1;"/>
<stop offset="1" style="stop-color:rgb(100%,53.333333%,0%);stop-opacity:1;"/>
</linearGradient>
</defs>
<g id="surface1">
<path style=" stroke:none;fill-rule:nonzero;fill:url(#linear0);" d="M 16 0 C 24.835938 0 32 7.164062 32 16 C 32 24.835938 24.835938 32 16 32 C 7.164062 32 0 24.835938 0 16 C 0 7.164062 7.164062 0 16 0 Z M 16 0 "/>
<path style=" stroke:none;fill-rule:nonzero;fill:rgb(100%,100%,100%);fill-opacity:1;" d="M 11.605469 5.703125 L 7.1875 6.96875 C 6.625 7.265625 6.089844 8.085938 5.738281 9.136719 C 5.453125 9.988281 5.289062 10.957031 5.226562 11.863281 L 10.421875 9.265625 Z M 20.394531 5.707031 L 21.582031 9.265625 L 26.773438 11.867188 C 26.710938 10.964844 26.542969 9.988281 26.261719 9.140625 C 25.996094 8.34375 25.625 7.675781 25.210938 7.269531 C 25.085938 7.136719 24.953125 7.039062 24.816406 6.96875 Z M 12.3125 6.246094 L 11.109375 9.867188 L 6.765625 12.035156 L 7.425781 14.535156 L 11.578125 16.613281 L 16 15.867188 L 20.421875 16.613281 L 24.574219 14.535156 L 25.234375 12.035156 L 20.894531 9.867188 L 19.6875 6.25 L 19.199219 6.25 L 16.425781 9.707031 L 16.421875 12.5625 L 15.574219 12.5625 L 15.578125 9.710938 L 12.808594 6.246094 Z M 7.707031 15.613281 L 8.738281 19.535156 L 15.574219 17.488281 L 15.574219 16.800781 L 11.441406 17.488281 Z M 24.292969 15.613281 L 20.554688 17.488281 L 16.421875 16.800781 L 16.421875 17.488281 L 23.261719 19.535156 Z M 15.574219 18.355469 L 14.097656 18.804688 L 12.457031 22.085938 L 15.574219 20.53125 Z M 16.421875 18.355469 L 16.421875 20.53125 L 19.546875 22.09375 L 17.902344 18.804688 Z M 12.992188 19.132812 L 8.953125 20.347656 L 10.136719 24.851562 Z M 19.007812 19.136719 L 21.863281 24.84375 L 23.046875 20.347656 Z M 16.421875 21.476562 L 16.425781 23.496094 L 21.132812 25.261719 L 20.179688 23.355469 Z M 15.574219 21.476562 L 11.824219 23.347656 L 10.867188 25.261719 L 15.578125 23.496094 Z M 15.578125 24.390625 L 11.765625 25.824219 L 15.578125 26.300781 Z M 16.425781 24.390625 L 16.425781 26.296875 L 20.246094 25.816406 Z M 16.425781 24.390625 "/>
</g>
</svg>
