<?xml version="1.0" encoding="UTF-8"?>
<svg xmlns="http://www.w3.org/2000/svg" xmlns:xlink="http://www.w3.org/1999/xlink" width="32px" height="32px" viewBox="0 0 32 32" version="1.1">
<defs>
<linearGradient id="linear0" gradientUnits="userSpaceOnUse" x1="0" y1="0" x2="512" y2="0" gradientTransform="matrix(0.0624143,0.003271,-0.003271,0.0624143,0,0)">
<stop offset="0" style="stop-color:rgb(75.294118%,0.784314%,14.509804%);stop-opacity:1;"/>
<stop offset="1" style="stop-color:rgb(57.254902%,27.058824%,45.490196%);stop-opacity:1;"/>
</linearGradient>
<clipPath id="clip1">
  <path d="M 8 5.53125 L 24 5.53125 L 24 26.46875 L 8 26.46875 Z M 8 5.53125 "/>
</clipPath>
</defs>
<g id="surface1">
<path style=" stroke:none;fill-rule:nonzero;fill:url(#linear0);" d="M 16 0 C 24.835938 0 32 7.164062 32 16 C 32 24.835938 24.835938 32 16 32 C 7.164062 32 0 24.835938 0 16 C 0 7.164062 7.164062 0 16 0 Z M 16 0 "/>
<path style=" stroke:none;fill-rule:nonzero;fill:rgb(100%,100%,100%);fill-opacity:1;" d="M 20.449219 19.273438 C 20.449219 20.84375 19.925781 22.148438 19.140625 23.195312 L 19.664062 23.851562 C 20.578125 22.671875 21.234375 21.101562 21.234375 19.273438 C 21.234375 17.4375 20.578125 15.867188 19.664062 14.691406 L 19.140625 15.34375 C 19.925781 16.390625 20.449219 17.832031 20.449219 19.273438 Z M 20.449219 19.273438 "/>
<path style=" stroke:none;fill-rule:nonzero;fill:rgb(100%,100%,100%);fill-opacity:1;" d="M 18.484375 16 L 17.960938 16.65625 C 18.484375 17.308594 18.878906 18.226562 18.878906 19.273438 C 18.878906 20.320312 18.484375 21.234375 17.960938 21.890625 L 18.484375 22.542969 C 19.140625 21.757812 19.53125 20.578125 19.53125 19.273438 C 19.53125 17.960938 19.140625 16.914062 18.484375 16 Z M 18.484375 16 "/>
<path style=" stroke:none;fill-rule:nonzero;fill:rgb(100%,100%,100%);fill-opacity:1;" d="M 17.4375 17.308594 L 16.914062 17.960938 C 17.179688 18.355469 17.308594 18.75 17.308594 19.273438 C 17.308594 19.796875 17.179688 20.1875 16.914062 20.578125 L 17.4375 21.234375 C 17.832031 20.710938 18.09375 20.054688 18.09375 19.273438 C 18.09375 18.484375 17.832031 17.832031 17.4375 17.308594 Z M 17.4375 17.308594 "/>
<g clip-path="url(#clip1)" clip-rule="nonzero">
<path style=" stroke:none;fill-rule:nonzero;fill:rgb(100%,100%,100%);fill-opacity:1;" d="M 18.617188 5.53125 L 8.148438 5.53125 L 8.148438 26.46875 L 23.851562 26.46875 L 23.851562 10.765625 Z M 17.308594 12.074219 L 22.542969 12.074219 L 22.542969 25.160156 L 9.457031 25.160156 L 9.457031 6.839844 L 17.308594 6.839844 Z M 18.617188 10.765625 L 18.617188 6.839844 L 22.542969 10.765625 Z M 18.617188 10.765625 "/>
</g>
<path style=" stroke:none;fill-rule:nonzero;fill:rgb(100%,100%,100%);fill-opacity:1;" d="M 13.382812 17.308594 L 10.765625 17.308594 L 10.765625 21.234375 L 13.382812 21.234375 L 16 23.851562 L 16 14.691406 Z M 13.382812 17.308594 "/>
</g>
</svg>
