<?xml version="1.0" encoding="UTF-8"?>
<svg xmlns="http://www.w3.org/2000/svg" xmlns:xlink="http://www.w3.org/1999/xlink" width="32px" height="32px" viewBox="0 0 32 32" version="1.1">
<defs>
<linearGradient id="linear0" gradientUnits="userSpaceOnUse" x1="0" y1="0" x2="512" y2="0" gradientTransform="matrix(0.0161762,0.0603704,-0.0603704,0.0161762,0,0)">
<stop offset="0" style="stop-color:rgb(60.392157%,1.176471%,11.764706%);stop-opacity:1;"/>
<stop offset="1" style="stop-color:rgb(94.117647%,0%,90.980392%);stop-opacity:1;"/>
</linearGradient>
<clipPath id="clip1">
  <path d="M 2.90625 7 L 29.09375 7 L 29.09375 26 L 2.90625 26 Z M 2.90625 7 "/>
</clipPath>
</defs>
<g id="surface1">
<path style=" stroke:none;fill-rule:nonzero;fill:url(#linear0);" d="M 16 0 C 24.835938 0 32 7.164062 32 16 C 32 24.835938 24.835938 32 16 32 C 7.164062 32 0 24.835938 0 16 C 0 7.164062 7.164062 0 16 0 Z M 16 0 "/>
<g clip-path="url(#clip1)" clip-rule="nonzero">
<path style=" stroke:none;fill-rule:nonzero;fill:rgb(100%,100%,100%);fill-opacity:1;" d="M 29.09375 15.179688 C 29.09375 15.632812 28.726562 16 28.273438 16 L 3.726562 16 C 3.273438 16 2.90625 15.632812 2.90625 15.179688 C 2.90625 14.730469 3.273438 14.363281 3.726562 14.363281 L 6.582031 14.363281 L 11.441406 7.671875 C 11.738281 7.261719 12.210938 7.015625 12.714844 7 C 13.222656 6.984375 13.707031 7.207031 14.027344 7.597656 L 15.34375 9.121094 L 15.363281 9.144531 C 15.519531 9.339844 15.753906 9.453125 16 9.453125 C 16.246094 9.453125 16.480469 9.339844 16.636719 9.144531 L 16.65625 9.121094 L 17.972656 7.597656 C 18.292969 7.207031 18.777344 6.984375 19.285156 7 C 19.789062 7.015625 20.261719 7.261719 20.558594 7.671875 L 25.417969 14.363281 L 28.273438 14.363281 C 28.726562 14.363281 29.09375 14.730469 29.09375 15.179688 Z M 21.320312 17.636719 C 19.445312 17.636719 17.867188 19.046875 17.660156 20.910156 L 14.339844 20.910156 C 14.132812 19.046875 12.558594 17.640625 10.683594 17.636719 C 8.8125 17.636719 7.234375 19.039062 7.019531 20.902344 C 6.808594 22.761719 8.027344 24.488281 9.851562 24.910156 C 11.679688 25.332031 13.527344 24.3125 14.152344 22.546875 L 17.847656 22.546875 C 18.472656 24.3125 20.320312 25.328125 22.148438 24.90625 C 23.972656 24.488281 25.191406 22.765625 24.976562 20.902344 C 24.765625 19.042969 23.191406 17.636719 21.320312 17.636719 Z M 21.320312 17.636719 "/>
</g>
</g>
</svg>
