<?xml version="1.0" encoding="UTF-8"?>
<svg xmlns="http://www.w3.org/2000/svg" xmlns:xlink="http://www.w3.org/1999/xlink" width="32px" height="32px" viewBox="0 0 32 32" version="1.1">
<defs>
<linearGradient id="linear0" gradientUnits="userSpaceOnUse" x1="0" y1="0" x2="512" y2="0" gradientTransform="matrix(-0.010853,0.0615505,-0.0615505,-0.010853,0,0)">
<stop offset="0" style="stop-color:rgb(90.980392%,41.568627%,20%);stop-opacity:1;"/>
<stop offset="1" style="stop-color:rgb(0%,87.843137%,17.647059%);stop-opacity:1;"/>
</linearGradient>
</defs>
<g id="surface1">
<path style=" stroke:none;fill-rule:nonzero;fill:url(#linear0);" d="M 16 0 C 24.835938 0 32 7.164062 32 16 C 32 24.835938 24.835938 32 16 32 C 7.164062 32 0 24.835938 0 16 C 0 7.164062 7.164062 0 16 0 Z M 16 0 "/>
<path style=" stroke:none;fill-rule:nonzero;fill:rgb(100%,100%,100%);fill-opacity:1;" d="M 10.894531 5.792969 L 8.855469 5.792969 L 8.855469 8.855469 L 5.792969 8.855469 L 5.792969 10.894531 L 8.855469 10.894531 L 8.855469 13.957031 L 10.894531 13.957031 L 10.894531 10.894531 L 13.957031 10.894531 L 13.957031 8.855469 L 10.894531 8.855469 Z M 18.042969 8.855469 L 26.207031 8.855469 L 26.207031 10.894531 L 18.042969 10.894531 Z M 18.042969 19.0625 L 26.207031 19.0625 L 26.207031 21.105469 L 18.042969 21.105469 Z M 18.042969 23.144531 L 26.207031 23.144531 L 26.207031 25.1875 L 18.042969 25.1875 Z M 12.210938 18.335938 L 9.875 20.6875 L 7.539062 18.335938 L 6.085938 19.789062 L 8.4375 22.125 L 6.085938 24.460938 L 7.539062 25.914062 L 9.875 23.5625 L 12.210938 25.914062 L 13.664062 24.460938 L 11.3125 22.125 L 13.664062 19.789062 Z M 12.210938 18.335938 "/>
</g>
</svg>
