<svg xmlns="http://www.w3.org/2000/svg" xmlns:xlink="http://www.w3.org/1999/xlink" width="32px" height="32px" viewBox="0 0 32 32" version="1.1">
<g id="surface1">
<path style=" stroke:none;fill-rule:evenodd;fill:#6493ff;fill-opacity:1;" d="M 14.398438 4.800781 C 14.398438 3.917969 15.117188 3.199219 16 3.199219 C 16.882812 3.199219 17.601562 3.917969 17.601562 4.800781 L 17.601562 13.601562 C 17.601562 14.042969 17.957031 14.398438 18.398438 14.398438 C 18.84375 14.398438 19.199219 14.042969 19.199219 13.601562 L 19.199219 6.398438 C 19.199219 5.515625 19.917969 4.800781 20.800781 4.800781 C 21.683594 4.800781 22.398438 5.515625 22.398438 6.398438 L 22.398438 13.601562 C 22.398438 14.042969 22.757812 14.398438 23.199219 14.398438 C 23.640625 14.398438 24 14.042969 24 13.601562 L 24 9.601562 C 24 8.714844 24.714844 8 25.601562 8 C 26.484375 8 27.199219 8.714844 27.199219 9.601562 L 27.199219 17.601562 C 27.199219 23.785156 22.1875 28.800781 16 28.800781 C 9.8125 28.800781 4.800781 23.785156 4.800781 17.601562 L 4.800781 14.398438 C 4.800781 13.515625 5.515625 12.800781 6.398438 12.800781 C 7.285156 12.800781 8 13.515625 8 14.398438 L 8 18.398438 C 8 18.84375 8.359375 19.199219 8.800781 19.199219 C 9.242188 19.199219 9.601562 18.84375 9.601562 18.398438 L 9.601562 6.398438 C 9.601562 5.515625 10.316406 4.800781 11.199219 4.800781 C 12.082031 4.800781 12.800781 5.515625 12.800781 6.398438 L 12.800781 13.601562 C 12.800781 14.042969 13.15625 14.398438 13.601562 14.398438 C 14.042969 14.398438 14.398438 14.042969 14.398438 13.601562 Z M 14.398438 4.800781 "/>
</g>
</svg>