<svg xmlns="http://www.w3.org/2000/svg" xmlns:xlink="http://www.w3.org/1999/xlink" width="32px" height="32px" viewBox="0 0 32 32" version="1.1">
<g id="surface1">
<path style=" stroke:none;fill-rule:nonzero;fill:#6493ff;fill-opacity:1;" d="M 16 6 C 18.066406 6 19.792969 4.390625 20 2.375 C 20.019531 2.1875 19.8125 2 19.625 2 C 19.523438 2 19.421875 2.019531 19.328125 2.054688 C 19.316406 2.0625 18.011719 2.5625 16 2.5625 C 13.988281 2.5625 12.679688 2.0625 12.671875 2.054688 C 12.566406 2.019531 12.453125 2 12.339844 2 L 12.335938 2 C 12.242188 2.003906 12.152344 2.046875 12.089844 2.117188 C 12.027344 2.1875 11.996094 2.28125 12 2.375 C 12.210938 4.386719 13.9375 6 16 6 Z M 16 6 "/>
<path style=" stroke:none;fill-rule:nonzero;fill:#6493ff;fill-opacity:1;" d="M 30.332031 5.617188 L 22.25 2.789062 C 22.179688 2.765625 22.101562 2.773438 22.039062 2.8125 C 21.976562 2.851562 21.933594 2.914062 21.921875 2.988281 C 21.4375 5.878906 18.933594 8 16.003906 8 C 13.070312 8 10.566406 5.878906 10.085938 2.988281 C 10.074219 2.914062 10.027344 2.847656 9.964844 2.808594 C 9.898438 2.769531 9.820312 2.765625 9.75 2.789062 L 1.667969 5.617188 C 1.203125 5.78125 0.925781 6.261719 1.015625 6.75 L 2.058594 12.25 C 2.140625 12.679688 2.492188 13.007812 2.925781 13.054688 L 5.980469 13.402344 C 6.242188 13.429688 6.433594 13.652344 6.425781 13.914062 L 5.96875 28.96875 C 5.957031 29.367188 6.179688 29.730469 6.535156 29.902344 C 6.683594 29.96875 6.839844 30.003906 7 30 L 25 30 C 25.160156 30.003906 25.316406 29.96875 25.464844 29.902344 C 25.820312 29.730469 26.042969 29.367188 26.03125 28.96875 L 25.574219 13.914062 C 25.566406 13.652344 25.757812 13.429688 26.019531 13.402344 L 29.074219 13.054688 C 29.507812 13.007812 29.859375 12.679688 29.941406 12.25 L 30.984375 6.75 C 31.074219 6.261719 30.796875 5.78125 30.332031 5.617188 Z M 30.332031 5.617188 "/>
</g>
</svg>