<?xml version="1.0" encoding="UTF-8"?>
<svg xmlns="http://www.w3.org/2000/svg" xmlns:xlink="http://www.w3.org/1999/xlink" width="32px" height="32px" viewBox="0 0 32 32" version="1.1">
<defs>
<linearGradient id="linear0" gradientUnits="userSpaceOnUse" x1="0" y1="0" x2="512" y2="0" gradientTransform="matrix(0.0625,0,0,0.0625,0,0)">
<stop offset="0" style="stop-color:rgb(0%,74.117647%,49.411765%);stop-opacity:1;"/>
<stop offset="1" style="stop-color:rgb(45.490196%,76.078431%,0%);stop-opacity:1;"/>
</linearGradient>
<clipPath id="clip1">
  <path d="M 4.15625 4.15625 L 27.84375 4.15625 L 27.84375 27.84375 L 4.15625 27.84375 Z M 4.15625 4.15625 "/>
</clipPath>
</defs>
<g id="surface1">
<path style=" stroke:none;fill-rule:nonzero;fill:url(#linear0);" d="M 16 0 C 24.835938 0 32 7.164062 32 16 C 32 24.835938 24.835938 32 16 32 C 7.164062 32 0 24.835938 0 16 C 0 7.164062 7.164062 0 16 0 Z M 16 0 "/>
<g clip-path="url(#clip1)" clip-rule="nonzero">
<path style=" stroke:none;fill-rule:nonzero;fill:rgb(100%,100%,100%);fill-opacity:1;" d="M 27.101562 10.449219 C 27.101562 10.449219 25.230469 14.394531 24.722656 16.414062 C 24.0625 19.058594 24.820312 21.054688 23.855469 23.617188 C 22.191406 26.625 22.078125 27.109375 16 27.101562 C 13.773438 27.101562 7.394531 25.402344 7.394531 25.402344 C 6.515625 25.175781 4.898438 25.308594 4.898438 24.328125 C 4.898438 23.34375 6.046875 22.628906 7.070312 22.625 L 11.097656 22.980469 C 12.074219 22.917969 13.097656 22.34375 13.128906 21.066406 C 13.113281 19.171875 12.925781 17.71875 11.964844 16.179688 L 8.234375 10.355469 C 8.011719 9.894531 7.957031 9.101562 8.601562 8.75 C 9.246094 8.398438 9.980469 8.921875 10.230469 9.378906 L 14.398438 15.050781 C 14.84375 15.464844 15.636719 15.542969 15.570312 14.660156 L 13.730469 6.222656 C 13.613281 5.621094 13.917969 4.894531 14.613281 4.894531 C 15.523438 4.894531 16.082031 5.242188 16.066406 5.792969 L 18.089844 14.121094 C 18.246094 14.527344 18.808594 14.472656 18.960938 14.097656 L 19.535156 6 C 19.566406 5.742188 19.902344 5.292969 20.550781 5.386719 C 21.195312 5.480469 21.570312 6.171875 21.5 6.441406 L 21.3125 14.441406 C 21.445312 15.152344 22.003906 15.253906 22.4375 14.859375 L 25.269531 9.792969 C 25.441406 9.367188 26.113281 9.28125 26.503906 9.449219 C 26.867188 9.683594 27.105469 10 27.105469 10.449219 Z M 27.101562 10.449219 "/>
</g>
</g>
</svg>
