<?xml version="1.0" encoding="UTF-8"?>
<svg xmlns="http://www.w3.org/2000/svg" xmlns:xlink="http://www.w3.org/1999/xlink" width="32px" height="32px" viewBox="0 0 32 32" version="1.1">
<g id="surface1">
<path style=" stroke:none;fill-rule:nonzero;fill:rgb(93.725491%,26.666668%,26.666668%);fill-opacity:1;" d="M 16 0 C 24.835938 0 32 7.164062 32 16 C 32 24.835938 24.835938 32 16 32 C 7.164062 32 0 24.835938 0 16 C 0 7.164062 7.164062 0 16 0 Z M 16 0 "/>
<path style=" stroke:none;fill-rule:nonzero;fill:rgb(100%,100%,100%);fill-opacity:1;" d="M 20.582031 6.835938 C 18.757812 6.835938 17.046875 7.726562 16 9.222656 C 14.953125 7.726562 13.242188 6.835938 11.417969 6.835938 C 8.324219 6.835938 5.816406 9.34375 5.816406 12.4375 C 5.816406 18.257812 12.4375 23.066406 16 25.519531 C 19.5625 23.066406 26.183594 18.257812 26.183594 12.4375 C 26.183594 9.34375 23.675781 6.835938 20.582031 6.835938 Z M 20.582031 6.835938 "/>
</g>
</svg>
