<?xml version="1.0" encoding="UTF-8"?>
<svg xmlns="http://www.w3.org/2000/svg" xmlns:xlink="http://www.w3.org/1999/xlink" width="32px" height="32px" viewBox="0 0 32 32" version="1.1">
<defs>
<linearGradient id="linear0" gradientUnits="userSpaceOnUse" x1="0" y1="0" x2="512" y2="0" gradientTransform="matrix(-0.010853,0.0615505,-0.0615505,-0.010853,0,0)">
<stop offset="0" style="stop-color:rgb(12.156863%,100%,18.039216%);stop-opacity:1;"/>
<stop offset="1" style="stop-color:rgb(10.588235%,47.843137%,0%);stop-opacity:1;"/>
</linearGradient>
</defs>
<g id="surface1">
<path style=" stroke:none;fill-rule:nonzero;fill:url(#linear0);" d="M 2.1875 0 L 29.8125 0 C 31.019531 0 32 0.980469 32 2.1875 L 32 29.8125 C 32 31.019531 31.019531 32 29.8125 32 L 2.1875 32 C 0.980469 32 0 31.019531 0 29.8125 L 0 2.1875 C 0 0.980469 0.980469 0 2.1875 0 Z M 2.1875 0 "/>
<path style=" stroke:none;fill-rule:nonzero;fill:rgb(100%,100%,100%);fill-opacity:1;" d="M 26.679688 12.441406 C 26.679688 12.195312 26.480469 11.996094 26.234375 11.996094 L 20.449219 11.996094 C 20.207031 11.996094 20.003906 11.792969 20.003906 11.550781 L 20.003906 5.765625 C 20.003906 5.519531 19.804688 5.320312 19.558594 5.320312 L 12.441406 5.320312 C 12.195312 5.320312 11.996094 5.519531 11.996094 5.765625 L 11.996094 11.550781 C 11.996094 11.792969 11.792969 11.996094 11.550781 11.996094 L 5.765625 11.996094 C 5.519531 11.996094 5.320312 12.195312 5.320312 12.441406 L 5.320312 19.558594 C 5.320312 19.804688 5.519531 20.003906 5.765625 20.003906 L 11.550781 20.003906 C 11.792969 20.003906 11.996094 20.207031 11.996094 20.449219 L 11.996094 26.234375 C 11.996094 26.480469 12.195312 26.679688 12.441406 26.679688 L 19.558594 26.679688 C 19.804688 26.679688 20.003906 26.480469 20.003906 26.234375 L 20.003906 20.449219 C 20.003906 20.207031 20.207031 20.003906 20.449219 20.003906 L 26.234375 20.003906 C 26.480469 20.003906 26.679688 19.804688 26.679688 19.558594 Z M 26.679688 12.441406 "/>
</g>
</svg>
