<?xml version="1.0" encoding="UTF-8"?>
<svg xmlns="http://www.w3.org/2000/svg" xmlns:xlink="http://www.w3.org/1999/xlink" width="32px" height="32px" viewBox="0 0 32 32" version="1.1">
<defs>
<linearGradient id="linear0" gradientUnits="userSpaceOnUse" x1="0" y1="0" x2="512" y2="0" gradientTransform="matrix(0.0457096,0.0426249,-0.0426249,0.0457096,0,0)">
<stop offset="0" style="stop-color:rgb(60.392157%,12.156863%,100%);stop-opacity:1;"/>
<stop offset="1" style="stop-color:rgb(0%,63.921569%,47.843137%);stop-opacity:1;"/>
</linearGradient>
</defs>
<g id="surface1">
<path style=" stroke:none;fill-rule:nonzero;fill:url(#linear0);" d="M 16 0 C 24.835938 0 32 7.164062 32 16 C 32 24.835938 24.835938 32 16 32 C 7.164062 32 0 24.835938 0 16 C 0 7.164062 7.164062 0 16 0 Z M 16 0 "/>
<path style=" stroke:none;fill-rule:nonzero;fill:rgb(100%,100%,100%);fill-opacity:1;" d="M 12.726562 5.050781 C 12.671875 5.050781 12.613281 5.050781 12.558594 5.054688 C 11.648438 5.113281 10.722656 5.714844 10.394531 6.597656 C 8.445312 11.839844 7.46875 13.976562 6.875 19.359375 C 7.710938 20.128906 8.683594 20.871094 9.75 21.539062 L 13.550781 10.292969 L 14.566406 10.632812 L 10.691406 22.097656 C 11.808594 22.71875 13.007812 23.253906 14.242188 23.660156 L 18.558594 12.121094 L 19.558594 12.496094 L 15.269531 23.960938 C 16.382812 24.253906 17.515625 24.429688 18.636719 24.46875 L 23.175781 14.253906 L 24.15625 14.6875 L 19.8125 24.457031 C 21.058594 24.386719 22.285156 24.128906 23.441406 23.640625 C 25.921875 20.558594 27.601562 17.355469 28.28125 13.753906 C 28.570312 12.210938 27.433594 10.714844 25.175781 10.617188 L 24.824219 10.601562 L 24.699219 10.269531 C 24.214844 8.988281 23.566406 8.546875 22.894531 8.414062 C 22.222656 8.277344 21.449219 8.5 20.863281 8.835938 L 20.117188 9.261719 L 20.066406 8.402344 C 20.007812 7.464844 19.472656 6.710938 18.671875 6.363281 C 17.875 6.019531 16.78125 6.0625 15.535156 6.929688 L 14.9375 7.347656 L 14.71875 6.652344 C 14.347656 5.464844 13.574219 5.050781 12.726562 5.050781 Z M 7.257812 12.125 C 5.417969 14.707031 4.078125 18.492188 4.285156 21.933594 C 5.863281 23.183594 7.414062 23.863281 8.871094 23.964844 C 9.679688 24.019531 10.46875 23.902344 11.242188 23.59375 C 9.210938 22.609375 7.382812 21.332031 5.941406 19.957031 L 5.75 19.777344 L 5.777344 19.515625 C 6.109375 16.386719 6.574219 14.273438 7.257812 12.125 Z M 7.257812 12.125 "/>
</g>
</svg>
