<?xml version="1.0" encoding="UTF-8"?>
<svg xmlns="http://www.w3.org/2000/svg" xmlns:xlink="http://www.w3.org/1999/xlink" width="32px" height="32px" viewBox="0 0 32 32" version="1.1">
<defs>
<linearGradient id="linear0" gradientUnits="userSpaceOnUse" x1="0" y1="0" x2="512" y2="0" gradientTransform="matrix(0.0471693,0.0410037,-0.0410037,0.0471693,0,0)">
<stop offset="0" style="stop-color:rgb(100%,12.941176%,44.313725%);stop-opacity:1;"/>
<stop offset="1" style="stop-color:rgb(100%,64.705882%,23.921569%);stop-opacity:1;"/>
</linearGradient>
</defs>
<g id="surface1">
<path style=" stroke:none;fill-rule:nonzero;fill:url(#linear0);" d="M 16 0 C 24.835938 0 32 7.164062 32 16 C 32 24.835938 24.835938 32 16 32 C 7.164062 32 0 24.835938 0 16 C 0 7.164062 7.164062 0 16 0 Z M 16 0 "/>
<path style=" stroke:none;fill-rule:evenodd;fill:rgb(100%,100%,100%);fill-opacity:1;" d="M 12.71875 27.925781 C 12.375 27.894531 12.125 27.589844 12.15625 27.25 L 12.652344 21.835938 L 15.164062 23.164062 L 15.742188 19.691406 C 15.800781 19.351562 16.121094 19.121094 16.460938 19.179688 C 16.796875 19.234375 17.027344 19.554688 16.96875 19.894531 L 16.109375 25.066406 L 13.71875 23.804688 L 13.394531 27.363281 C 13.359375 27.703125 13.058594 27.957031 12.71875 27.925781 M 4.015625 19.574219 C 3.847656 19.273438 3.957031 18.894531 4.253906 18.726562 L 9.1875 15.972656 L 9.53125 18.925781 L 12.910156 17.347656 C 13.222656 17.203125 13.589844 17.335938 13.734375 17.648438 C 13.882812 17.960938 13.746094 18.328125 13.433594 18.472656 L 8.492188 20.78125 L 8.167969 17.964844 L 4.863281 19.8125 C 4.5625 19.980469 4.183594 19.871094 4.015625 19.574219 M 6.902344 7.027344 C 7.082031 6.734375 7.464844 6.640625 7.757812 6.816406 L 12.707031 9.820312 L 10.234375 11.625 L 13.382812 13.863281 C 13.664062 14.0625 13.726562 14.449219 13.527344 14.730469 C 13.328125 15.011719 12.941406 15.074219 12.664062 14.875 L 8.109375 11.636719 L 10.46875 9.917969 L 7.113281 7.878906 C 6.820312 7.703125 6.726562 7.320312 6.902344 7.027344 M 20.507812 4.410156 C 20.84375 4.46875 21.070312 4.789062 21.011719 5.128906 L 20.078125 10.421875 L 17.714844 8.910156 L 16.867188 12.265625 C 16.78125 12.597656 16.445312 12.796875 16.113281 12.710938 C 15.78125 12.628906 15.582031 12.292969 15.664062 11.960938 L 16.933594 6.933594 L 19.175781 8.371094 L 19.789062 4.914062 C 19.847656 4.574219 20.167969 4.347656 20.507812 4.410156 M 28.332031 13.121094 C 28.496094 13.421875 28.386719 13.796875 28.085938 13.964844 L 23.355469 16.558594 L 23.054688 13.757812 L 19.890625 15.203125 C 19.578125 15.347656 19.210938 15.210938 19.066406 14.898438 C 18.921875 14.585938 19.0625 14.214844 19.375 14.074219 L 24.105469 11.910156 L 24.390625 14.570312 L 27.488281 12.875 C 27.789062 12.710938 28.167969 12.820312 28.332031 13.121094 M 25.109375 24.378906 C 24.929688 24.671875 24.546875 24.765625 24.253906 24.585938 L 19.585938 21.753906 L 21.894531 20.066406 L 19.003906 18.011719 C 18.726562 17.8125 18.660156 17.425781 18.859375 17.144531 C 19.058594 16.863281 19.445312 16.800781 19.726562 17 L 24.019531 20.054688 L 21.820312 21.65625 L 24.898438 23.523438 C 25.191406 23.703125 25.285156 24.085938 25.109375 24.378906 "/>
</g>
</svg>
