<?xml version="1.0" encoding="UTF-8"?>
<svg xmlns="http://www.w3.org/2000/svg" xmlns:xlink="http://www.w3.org/1999/xlink" width="32px" height="32px" viewBox="0 0 32 32" version="1.1">
<defs>
<linearGradient id="linear0" gradientUnits="userSpaceOnUse" x1="0" y1="0" x2="512" y2="0" gradientTransform="matrix(0.0340399,0.0524169,-0.0524169,0.0340399,0,0)">
<stop offset="0" style="stop-color:rgb(94.117647%,34.901961%,25.490196%);stop-opacity:1;"/>
<stop offset="1" style="stop-color:rgb(68.235294%,21.176471%,86.666667%);stop-opacity:1;"/>
</linearGradient>
</defs>
<g id="surface1">
<path style=" stroke:none;fill-rule:nonzero;fill:url(#linear0);" d="M 16 0 C 24.835938 0 32 7.164062 32 16 C 32 24.835938 24.835938 32 16 32 C 7.164062 32 0 24.835938 0 16 C 0 7.164062 7.164062 0 16 0 Z M 16 0 "/>
<path style=" stroke:none;fill-rule:nonzero;fill:rgb(100%,100%,100%);fill-opacity:1;" d="M 16.761719 5.507812 C 16.085938 5.523438 15.601562 5.65625 15.277344 5.890625 L 10.878906 8.25 L 8.425781 11.582031 C 7.914062 12.375 8.277344 13.917969 9.890625 12.929688 L 11.652344 10.605469 C 13.894531 8.667969 18.46875 9.5625 16.296875 13.4375 C 15.234375 15.683594 15.734375 16.78125 17.101562 17.242188 L 17.730469 15.140625 C 18.8125 12.703125 20.832031 12.261719 20.75 10.296875 L 25.609375 10.648438 L 25.570312 5.574219 Z M 14.3125 10.1875 C 13.523438 10.175781 12.75 10.5 12.1875 10.972656 L 10.417969 13.300781 C 10.90625 13.683594 11.390625 13.476562 11.875 13.011719 C 12.445312 13.300781 12.886719 12.851562 13.25 11.957031 C 13.398438 11.34375 13.621094 10.914062 14.3125 10.1875 Z M 12.835938 14.1875 C 12.753906 14.191406 12.671875 14.210938 12.597656 14.242188 L 6.75 16.9375 C 6.441406 17.082031 6.304688 17.445312 6.449219 17.753906 L 10.308594 26.136719 C 10.453125 26.441406 10.816406 26.578125 11.125 26.4375 L 16.972656 23.742188 C 17.28125 23.597656 17.417969 23.234375 17.273438 22.925781 L 13.414062 14.542969 C 13.304688 14.3125 13.074219 14.179688 12.835938 14.1875 Z M 11.488281 16.453125 C 11.839844 16.460938 12.164062 16.546875 12.441406 16.71875 C 12.929688 17.019531 13.285156 17.667969 13.332031 18.339844 C 13.363281 18.800781 13.253906 19.148438 12.761719 20.144531 C 12.585938 20.5 12.507812 20.835938 12.535156 21.113281 C 12.554688 21.335938 12.570312 21.375 12.699219 21.558594 L 12.839844 21.753906 L 12.761719 21.800781 C 12.71875 21.824219 12.441406 21.941406 12.144531 22.058594 C 11.832031 22.183594 11.585938 22.261719 11.558594 22.246094 C 11.53125 22.234375 11.453125 22.128906 11.378906 22.011719 C 11.039062 21.460938 11.054688 20.765625 11.417969 19.992188 C 11.722656 19.355469 11.804688 19.085938 11.78125 18.816406 C 11.742188 18.386719 11.476562 18.070312 11.109375 18.019531 C 10.835938 17.980469 10.625 18.042969 10.25 18.277344 C 9.875 18.511719 9.621094 18.761719 9.390625 19.121094 C 9.308594 19.246094 9.234375 19.351562 9.226562 19.347656 C 9.21875 19.347656 9.082031 19.019531 8.921875 18.621094 L 8.628906 17.898438 L 8.773438 17.734375 C 9.039062 17.433594 9.308594 17.226562 9.78125 16.960938 C 10.390625 16.617188 10.972656 16.449219 11.488281 16.453125 Z M 12.996094 22.480469 C 13.289062 22.484375 13.546875 22.625 13.707031 22.886719 C 13.902344 23.203125 13.894531 23.511719 13.691406 23.824219 C 13.558594 24.027344 13.285156 24.203125 13.011719 24.261719 C 12.324219 24.414062 11.742188 23.839844 11.9375 23.207031 C 12.019531 22.941406 12.175781 22.757812 12.445312 22.617188 C 12.632812 22.523438 12.820312 22.476562 12.996094 22.480469 Z M 12.996094 22.480469 "/>
</g>
</svg>
