<?xml version="1.0" encoding="UTF-8"?>
<svg xmlns="http://www.w3.org/2000/svg" xmlns:xlink="http://www.w3.org/1999/xlink" width="32px" height="32px" viewBox="0 0 32 32" version="1.1">
<defs>
<linearGradient id="linear0" gradientUnits="userSpaceOnUse" x1="0" y1="0" x2="512" y2="0" gradientTransform="matrix(-0.010853,0.0615505,-0.0615505,-0.010853,0,0)">
<stop offset="0" style="stop-color:rgb(100%,12.156863%,58.823529%);stop-opacity:1;"/>
<stop offset="1" style="stop-color:rgb(47.843137%,0%,25.490196%);stop-opacity:1;"/>
</linearGradient>
</defs>
<g id="surface1">
<path style=" stroke:none;fill-rule:nonzero;fill:url(#linear0);" d="M 2.1875 0 L 29.8125 0 C 31.019531 0 32 0.980469 32 2.1875 L 32 29.8125 C 32 31.019531 31.019531 32 29.8125 32 L 2.1875 32 C 0.980469 32 0 31.019531 0 29.8125 L 0 2.1875 C 0 0.980469 0.980469 0 2.1875 0 Z M 2.1875 0 "/>
<path style="fill:none;stroke-width:2;stroke-linecap:round;stroke-linejoin:round;stroke:rgb(100%,100%,100%);stroke-opacity:1;stroke-miterlimit:4;" d="M 21 12 L 9 12 M 13 16 L 9 12 L 13 8 " transform="matrix(1.015625,0,0,1.015625,3.8125,3.8125)"/>
<path style="fill:none;stroke-width:2;stroke-linecap:round;stroke-linejoin:round;stroke:rgb(100%,100%,100%);stroke-opacity:1;stroke-miterlimit:4;" d="M 12 3 C 7.030769 3 3 7.030769 3 12 C 3 16.969231 7.030769 21 12 21 " transform="matrix(1.015625,0,0,1.015625,3.8125,3.8125)"/>
</g>
</svg>
