<?xml version="1.0" encoding="UTF-8"?>
<svg xmlns="http://www.w3.org/2000/svg" xmlns:xlink="http://www.w3.org/1999/xlink" width="32px" height="32px" viewBox="0 0 32 32" version="1.1">
<defs>
<linearGradient id="linear0" gradientUnits="userSpaceOnUse" x1="0" y1="0" x2="512" y2="0" gradientTransform="matrix(-0.010853,0.0615505,-0.0615505,-0.010853,0,0)">
<stop offset="0" style="stop-color:rgb(0%,74.117647%,39.607843%);stop-opacity:1;"/>
<stop offset="1" style="stop-color:rgb(0%,94.117647%,83.137255%);stop-opacity:1;"/>
</linearGradient>
</defs>
<g id="surface1">
<path style=" stroke:none;fill-rule:nonzero;fill:url(#linear0);" d="M 16 0 C 24.835938 0 32 7.164062 32 16 C 32 24.835938 24.835938 32 16 32 C 7.164062 32 0 24.835938 0 16 C 0 7.164062 7.164062 0 16 0 Z M 16 0 "/>
<path style=" stroke:none;fill-rule:nonzero;fill:rgb(100%,100%,100%);fill-opacity:1;" d="M 8.082031 24.90625 L 23.8125 24.90625 C 24.902344 24.90625 25.789062 24.019531 25.789062 22.925781 L 25.789062 9.074219 C 25.789062 7.980469 24.902344 7.09375 23.8125 7.09375 L 8.082031 7.09375 C 6.992188 7.09375 6.105469 7.980469 6.105469 9.074219 L 6.105469 22.925781 C 6.105469 24.019531 6.992188 24.90625 8.082031 24.90625 Z M 8.082031 22.925781 L 8.082031 17.980469 L 12.042969 17.980469 L 12.042969 22.925781 Z M 17.980469 11.050781 L 17.980469 16 L 14.019531 16 L 14.019531 11.050781 Z M 12.042969 11.050781 L 12.042969 16 L 8.082031 16 L 8.082031 11.050781 Z M 14.019531 22.925781 L 14.019531 17.980469 L 17.980469 17.980469 L 17.980469 22.925781 Z M 19.957031 22.925781 L 19.957031 17.980469 L 23.8125 17.980469 L 23.8125 22.925781 Z M 23.8125 16 L 19.957031 16 L 19.957031 11.050781 L 23.8125 11.050781 Z M 23.8125 16 "/>
</g>
</svg>
