<?xml version="1.0" encoding="UTF-8"?>
<svg xmlns="http://www.w3.org/2000/svg" xmlns:xlink="http://www.w3.org/1999/xlink" width="32px" height="32px" viewBox="0 0 32 32" version="1.1">
<defs>
<linearGradient id="linear0" gradientUnits="userSpaceOnUse" x1="0" y1="0" x2="512" y2="0" gradientTransform="matrix(0.0471693,0.0410037,-0.0410037,0.0471693,0,0)">
<stop offset="0" style="stop-color:rgb(73.333333%,54.509804%,54.509804%);stop-opacity:1;"/>
<stop offset="1" style="stop-color:rgb(27.45098%,16.470588%,16.470588%);stop-opacity:1;"/>
</linearGradient>
<clipPath id="clip1">
  <path d="M 5.46875 7 L 26.53125 7 L 26.53125 25 L 5.46875 25 Z M 5.46875 7 "/>
</clipPath>
</defs>
<g id="surface1">
<path style=" stroke:none;fill-rule:nonzero;fill:url(#linear0);" d="M 16 0 C 24.835938 0 32 7.164062 32 16 C 32 24.835938 24.835938 32 16 32 C 7.164062 32 0 24.835938 0 16 C 0 7.164062 7.164062 0 16 0 Z M 16 0 "/>
<g clip-path="url(#clip1)" clip-rule="nonzero">
<path style=" stroke:none;fill-rule:nonzero;fill:rgb(100%,100%,100%);fill-opacity:1;" d="M 26.398438 18.855469 L 26.398438 20.773438 L 24.523438 20.773438 L 24.523438 18.855469 Z M 26.398438 15.0625 L 26.398438 16.9375 L 24.523438 16.9375 L 24.523438 15.0625 Z M 26.398438 22.648438 C 26.398438 23.125 26.203125 23.5625 25.816406 23.964844 C 25.429688 24.367188 25 24.566406 24.523438 24.566406 L 24.523438 22.648438 Z M 18.8125 7.433594 L 18.8125 9.351562 L 16.890625 9.351562 L 16.890625 7.433594 Z M 26.398438 11.226562 L 26.398438 13.144531 L 24.523438 13.144531 L 24.523438 11.226562 Z M 24.523438 7.433594 C 25 7.433594 25.429688 7.632812 25.816406 8.035156 C 26.203125 8.4375 26.398438 8.875 26.398438 9.351562 L 24.523438 9.351562 Z M 7.386719 24.566406 C 6.851562 24.566406 6.398438 24.382812 6.027344 24.011719 C 5.65625 23.636719 5.46875 23.183594 5.46875 22.648438 L 5.46875 18.855469 L 14.972656 18.855469 L 14.972656 24.566406 Z M 7.386719 11.226562 L 7.386719 13.144531 L 5.46875 13.144531 L 5.46875 11.226562 Z M 18.8125 22.648438 L 18.8125 24.566406 L 16.890625 24.566406 L 16.890625 22.648438 Z M 22.605469 7.433594 L 22.605469 9.351562 L 20.683594 9.351562 L 20.683594 7.433594 Z M 22.605469 22.648438 L 22.605469 24.566406 L 20.683594 24.566406 L 20.683594 22.648438 Z M 7.386719 7.433594 L 7.386719 9.351562 L 5.46875 9.351562 C 5.46875 8.875 5.667969 8.4375 6.070312 8.035156 C 6.472656 7.632812 6.910156 7.433594 7.386719 7.433594 Z M 7.386719 15.0625 L 7.386719 16.9375 L 5.46875 16.9375 L 5.46875 15.0625 Z M 14.972656 7.433594 L 14.972656 9.351562 L 13.097656 9.351562 L 13.097656 7.433594 Z M 11.179688 7.433594 L 11.179688 9.351562 L 9.261719 9.351562 L 9.261719 7.433594 Z M 11.179688 7.433594 "/>
</g>
</g>
</svg>
