<?xml version="1.0" encoding="UTF-8"?>
<svg xmlns="http://www.w3.org/2000/svg" xmlns:xlink="http://www.w3.org/1999/xlink" width="32px" height="32px" viewBox="0 0 32 32" version="1.1">
<defs>
<linearGradient id="linear0" gradientUnits="userSpaceOnUse" x1="0" y1="0" x2="512" y2="0" gradientTransform="matrix(-0.00109078,0.0624905,-0.0624905,-0.00109078,0,0)">
<stop offset="0" style="stop-color:rgb(100%,53.333333%,27.843137%);stop-opacity:1;"/>
<stop offset="1" style="stop-color:rgb(27.843137%,14.901961%,0%);stop-opacity:1;"/>
</linearGradient>
</defs>
<g id="surface1">
<path style=" stroke:none;fill-rule:nonzero;fill:url(#linear0);" d="M 2.1875 0 L 29.8125 0 C 31.019531 0 32 0.980469 32 2.1875 L 32 29.8125 C 32 31.019531 31.019531 32 29.8125 32 L 2.1875 32 C 0.980469 32 0 31.019531 0 29.8125 L 0 2.1875 C 0 0.980469 0.980469 0 2.1875 0 Z M 2.1875 0 "/>
<path style=" stroke:none;fill-rule:nonzero;fill:rgb(100%,100%,100%);fill-opacity:1;" d="M 8.3125 26.140625 L 5.835938 23.664062 C 5.460938 23.285156 5.273438 22.820312 5.273438 22.277344 C 5.273438 21.730469 5.460938 21.269531 5.835938 20.894531 L 20.871094 5.859375 C 21.253906 5.484375 21.714844 5.296875 22.261719 5.296875 C 22.804688 5.296875 23.265625 5.484375 23.640625 5.859375 L 26.117188 8.335938 C 26.492188 8.714844 26.679688 9.179688 26.679688 9.722656 C 26.679688 10.269531 26.492188 10.730469 26.117188 11.105469 L 11.082031 26.140625 C 10.699219 26.515625 10.238281 26.703125 9.691406 26.703125 C 9.148438 26.703125 8.6875 26.515625 8.3125 26.140625 Z M 16.667969 21.890625 L 21.863281 16.691406 L 26.09375 20.917969 C 26.484375 21.300781 26.679688 21.769531 26.679688 22.320312 C 26.679688 22.871094 26.492188 23.335938 26.117188 23.710938 L 23.734375 26.09375 C 23.34375 26.484375 22.871094 26.683594 22.3125 26.691406 C 21.757812 26.699219 21.285156 26.507812 20.894531 26.117188 Z M 16.003906 18.964844 C 16.285156 18.964844 16.519531 18.871094 16.707031 18.679688 C 16.894531 18.492188 16.988281 18.253906 16.988281 17.972656 C 16.988281 17.691406 16.894531 17.457031 16.703125 17.269531 C 16.511719 17.082031 16.277344 16.988281 15.996094 16.988281 C 15.714844 16.988281 15.480469 17.085938 15.292969 17.273438 C 15.105469 17.464844 15.011719 17.699219 15.011719 17.980469 C 15.011719 18.261719 15.105469 18.496094 15.296875 18.683594 C 15.488281 18.871094 15.722656 18.964844 16.003906 18.964844 Z M 14.027344 16.988281 C 14.308594 16.988281 14.542969 16.894531 14.730469 16.703125 C 14.917969 16.511719 15.011719 16.277344 15.011719 15.996094 C 15.011719 15.714844 14.917969 15.480469 14.726562 15.292969 C 14.535156 15.105469 14.300781 15.011719 14.019531 15.011719 C 13.738281 15.011719 13.503906 15.105469 13.316406 15.296875 C 13.128906 15.488281 13.035156 15.722656 13.035156 16.003906 C 13.035156 16.285156 13.128906 16.519531 13.320312 16.707031 C 13.507812 16.894531 13.746094 16.988281 14.027344 16.988281 Z M 17.980469 16.988281 C 18.261719 16.988281 18.496094 16.894531 18.683594 16.703125 C 18.871094 16.511719 18.964844 16.277344 18.964844 15.996094 C 18.964844 15.714844 18.871094 15.480469 18.679688 15.292969 C 18.492188 15.105469 18.253906 15.011719 17.972656 15.011719 C 17.691406 15.011719 17.457031 15.105469 17.269531 15.296875 C 17.082031 15.488281 16.988281 15.722656 16.988281 16.003906 C 16.988281 16.285156 17.085938 16.519531 17.273438 16.707031 C 17.464844 16.894531 17.699219 16.988281 17.980469 16.988281 Z M 10.105469 15.277344 L 5.90625 11.078125 C 5.53125 10.707031 5.335938 10.242188 5.320312 9.695312 C 5.304688 9.148438 5.484375 8.6875 5.859375 8.3125 L 8.3125 5.859375 C 8.695312 5.484375 9.15625 5.296875 9.703125 5.296875 C 10.246094 5.296875 10.707031 5.484375 11.082031 5.859375 L 15.308594 10.085938 Z M 16.003906 15.011719 C 16.285156 15.011719 16.519531 14.914062 16.707031 14.726562 C 16.894531 14.535156 16.988281 14.300781 16.988281 14.019531 C 16.988281 13.738281 16.894531 13.503906 16.703125 13.316406 C 16.515625 13.128906 16.277344 13.035156 15.996094 13.035156 C 15.714844 13.035156 15.480469 13.128906 15.292969 13.320312 C 15.105469 13.507812 15.011719 13.746094 15.011719 14.027344 C 15.011719 14.308594 15.109375 14.542969 15.296875 14.730469 C 15.488281 14.917969 15.722656 15.011719 16.003906 15.011719 Z M 16.003906 15.011719 "/>
</g>
</svg>
