<?xml version="1.0" encoding="UTF-8"?>
<svg xmlns="http://www.w3.org/2000/svg" xmlns:xlink="http://www.w3.org/1999/xlink" width="32px" height="32px" viewBox="0 0 32 32" version="1.1">
<defs>
<linearGradient id="linear0" gradientUnits="userSpaceOnUse" x1="0" y1="0" x2="512" y2="0" gradientTransform="matrix(0.0340399,0.0524169,-0.0524169,0.0340399,0,0)">
<stop offset="0" style="stop-color:rgb(71.372549%,36.078431%,100%);stop-opacity:1;"/>
<stop offset="1" style="stop-color:rgb(14.509804%,0%,41.960784%);stop-opacity:1;"/>
</linearGradient>
</defs>
<g id="surface1">
<path style=" stroke:none;fill-rule:nonzero;fill:url(#linear0);" d="M 2.1875 0 L 29.8125 0 C 31.019531 0 32 0.980469 32 2.1875 L 32 29.8125 C 32 31.019531 31.019531 32 29.8125 32 L 2.1875 32 C 0.980469 32 0 31.019531 0 29.8125 L 0 2.1875 C 0 0.980469 0.980469 0 2.1875 0 Z M 2.1875 0 "/>
<path style=" stroke:none;fill-rule:nonzero;fill:rgb(100%,100%,100%);fill-opacity:1;" d="M 8.71875 16 L 23.28125 16 C 25.292969 16 26.921875 14.371094 26.921875 12.359375 C 26.921875 10.347656 25.292969 8.71875 23.28125 8.71875 C 22.503906 8.71875 21.855469 8.160156 21.539062 7.449219 C 20.5625 5.265625 18.390625 3.859375 16 3.859375 C 13.609375 3.859375 11.4375 5.265625 10.460938 7.449219 C 10.144531 8.160156 9.496094 8.71875 8.71875 8.71875 C 6.707031 8.71875 5.078125 10.347656 5.078125 12.359375 C 5.078125 14.371094 6.707031 16 8.71875 16 "/>
<path style=" stroke:none;fill-rule:evenodd;fill:rgb(100%,100%,100%);fill-opacity:1;" d="M 13.859375 18.425781 L 13.296875 19.382812 C 12.34375 21.003906 11.867188 21.816406 12.214844 22.425781 C 12.5625 23.039062 13.507812 23.039062 15.394531 23.039062 C 15.679688 23.039062 15.824219 23.039062 15.910156 23.128906 C 16 23.214844 16 23.359375 16 23.644531 L 16 25.90625 C 16 26.804688 16 27.253906 16.222656 27.316406 C 16.449219 27.375 16.675781 26.988281 17.128906 26.214844 L 18.703125 23.539062 C 19.65625 21.917969 20.132812 21.105469 19.785156 20.496094 C 19.4375 19.882812 18.492188 19.882812 16.605469 19.882812 C 16.320312 19.882812 16.175781 19.882812 16.089844 19.792969 C 16 19.707031 16 19.5625 16 19.277344 L 16 18.425781 Z M 13.859375 18.425781 "/>
</g>
</svg>
