<?xml version="1.0" encoding="UTF-8"?>
<svg xmlns="http://www.w3.org/2000/svg" xmlns:xlink="http://www.w3.org/1999/xlink" width="32px" height="32px" viewBox="0 0 32 32" version="1.1">
<defs>
<linearGradient id="linear0" gradientUnits="userSpaceOnUse" x1="0" y1="0" x2="512" y2="0" gradientTransform="matrix(-0.010853,0.0615505,-0.0615505,-0.010853,0,0)">
<stop offset="0" style="stop-color:rgb(91.764706%,85.098039%,12.156863%);stop-opacity:1;"/>
<stop offset="1" style="stop-color:rgb(47.843137%,30.588235%,0%);stop-opacity:1;"/>
</linearGradient>
<clipPath id="clip1">
  <path d="M 5 3.8125 L 24 3.8125 L 24 28.1875 L 5 28.1875 Z M 5 3.8125 "/>
</clipPath>
</defs>
<g id="surface1">
<path style=" stroke:none;fill-rule:nonzero;fill:url(#linear0);" d="M 2.1875 0 L 29.8125 0 C 31.019531 0 32 0.980469 32 2.1875 L 32 29.8125 C 32 31.019531 31.019531 32 29.8125 32 L 2.1875 32 C 0.980469 32 0 31.019531 0 29.8125 L 0 2.1875 C 0 0.980469 0.980469 0 2.1875 0 Z M 2.1875 0 "/>
<g clip-path="url(#clip1)" clip-rule="nonzero">
<path style=" stroke:none;fill-rule:nonzero;fill:rgb(100%,100%,100%);fill-opacity:1;" d="M 15.476562 13.328125 C 15.644531 12.828125 16.355469 12.828125 16.523438 13.328125 L 17.503906 16.28125 C 17.945312 17.59375 18.976562 18.628906 20.292969 19.066406 L 23.242188 20.046875 C 23.742188 20.214844 23.742188 20.925781 23.242188 21.09375 L 20.289062 22.074219 C 18.976562 22.515625 17.941406 23.546875 17.503906 24.863281 L 16.523438 27.8125 C 16.449219 28.035156 16.238281 28.191406 16 28.191406 C 15.761719 28.191406 15.550781 28.035156 15.476562 27.8125 L 14.496094 24.859375 C 14.054688 23.546875 13.023438 22.515625 11.710938 22.074219 L 8.757812 21.09375 C 8.535156 21.019531 8.378906 20.808594 8.378906 20.570312 C 8.378906 20.332031 8.535156 20.121094 8.757812 20.046875 L 11.710938 19.066406 C 13.023438 18.625 14.054688 17.59375 14.496094 16.28125 Z M 9.59375 5.5625 L 10.808594 7.332031 C 11.074219 8.121094 11.691406 8.738281 12.480469 9.003906 L 14.25 9.59375 L 12.480469 10.808594 C 11.691406 11.074219 11.074219 11.691406 10.808594 12.480469 L 10.21875 14.25 L 9.003906 12.480469 C 8.738281 11.691406 8.121094 11.074219 7.332031 10.808594 L 5.5625 10.21875 L 7.332031 9.003906 C 8.121094 8.738281 8.738281 8.121094 9.003906 7.332031 Z M 20.363281 3.964844 L 21.171875 5.140625 C 21.347656 5.667969 21.761719 6.082031 22.289062 6.257812 L 23.464844 6.652344 L 22.289062 7.460938 C 21.761719 7.636719 21.347656 8.050781 21.171875 8.578125 L 20.777344 9.753906 L 19.96875 8.578125 C 19.792969 8.050781 19.378906 7.636719 18.851562 7.460938 L 17.675781 7.066406 L 18.855469 6.257812 C 19.382812 6.082031 19.792969 5.667969 19.96875 5.140625 Z M 20.363281 3.964844 "/>
</g>
</g>
</svg>
