<?xml version="1.0" encoding="UTF-8"?>
<!--Generator: Apple Native CoreSVG 326-->
<!DOCTYPE svg
PUBLIC "-//W3C//DTD SVG 1.1//EN"
       "http://www.w3.org/Graphics/SVG/1.1/DTD/svg11.dtd">
<svg version="1.1" xmlns="http://www.w3.org/2000/svg" xmlns:xlink="http://www.w3.org/1999/xlink" viewBox="0 0 34.1484 19.0898">
 <g>
  <rect height="19.0898" opacity="0" width="34.1484" x="0" y="0"/>
  <path d="M5.77734 16.418L5.77734 3.03516C5.77734 2.28516 6.15234 1.91016 6.90234 1.91016L26.8945 1.91016C27.6445 1.91016 28.0195 2.28516 28.0195 3.03516L28.0195 16.418Z" fill="white" fill-opacity="0.2125"/>
  <path d="M13.3594 1.91016L13.6523 1.91016C13.8281 1.91016 13.9219 1.99219 13.9219 2.19141L13.9219 2.32031C13.9219 2.8125 14.25 3.14062 14.7422 3.14062L19.0781 3.14062C19.5586 3.14062 19.8633 2.8125 19.8633 2.32031L19.8633 2.19141C19.8633 1.99219 19.957 1.91016 20.1562 1.91016L20.4492 1.91016L20.4492 0.9375L13.3594 0.9375ZM0 17.7539C0 18.4922 0.597656 19.0898 1.32422 19.0898L32.4727 19.0898C33.1992 19.0898 33.7969 18.4922 33.7969 17.7539C33.7969 17.0156 33.1992 16.418 32.4727 16.418L29.9062 16.418L29.9062 2.50781C29.9062 0.867188 29.0273 0.0234375 27.3984 0.0234375L6.39844 0.0234375C4.85156 0.0234375 3.89062 0.867188 3.89062 2.50781L3.89062 16.418L1.32422 16.418C0.597656 16.418 0 17.0156 0 17.7539ZM5.77734 16.418L5.77734 3.03516C5.77734 2.28516 6.15234 1.91016 6.90234 1.91016L26.8945 1.91016C27.6445 1.91016 28.0195 2.28516 28.0195 3.03516L28.0195 16.418Z" fill="white" fill-opacity="0.85"/>
 </g>
</svg>
